<svg width="23" height="24" viewBox="0 0 23 24" fill="none" xmlns="http://www.w3.org/2000/svg">
<path d="M9.58342 18C11.3525 18 12.9788 17.365 14.2764 16.312L18.4892 20.708L19.8443 19.294L15.6315 14.898C16.6415 13.543 17.2501 11.846 17.2501 10C17.2501 5.589 13.8106 2 9.58342 2C5.35621 2 1.91675 5.589 1.91675 10C1.91675 14.411 5.35621 18 9.58342 18ZM9.58342 4C12.7545 4 15.3334 6.691 15.3334 10C15.3334 13.309 12.7545 16 9.58342 16C6.41229 16 3.83341 13.309 3.83341 10C3.83341 6.691 6.41229 4 9.58342 4Z" fill="#486DB7"/>
<path d="M10.9364 8.58599C11.2996 8.96599 11.4999 9.46799 11.4999 9.99999H13.4166C13.4166 8.93499 13.0179 7.93099 12.2915 7.17199C10.8406 5.65999 8.32496 5.65999 6.875 7.17199L8.22817 8.58799C8.9565 7.82999 10.2119 7.83199 10.9364 8.58599Z" fill="#486DB7"/>
</svg>

