<svg width="24" height="24" viewBox="0 0 24 24" fill="none" xmlns="http://www.w3.org/2000/svg">
<g clip-path="url(#clip0_296_751)">
<path d="M0 12C0 18.6168 5.3832 24 12 24C18.6168 24 24 18.6168 24 12C24 5.3832 18.6168 0 12 0C5.3832 0 0 5.3832 0 12ZM21.6 12C21.6 17.2932 17.2932 21.6 12 21.6C6.7068 21.6 2.4 17.2932 2.4 12C2.4 6.7068 6.7068 2.4 12 2.4C17.2932 2.4 21.6 6.7068 21.6 12Z" fill="#486DB7"/>
<path d="M5.15161 10.4484L12 17.2968L18.8484 10.4484L17.1516 8.75155L12 13.9032L6.84841 8.75155L5.15161 10.4484Z" fill="#486DB7"/>
</g>
<defs>
<clipPath id="clip0_296_751">
<rect width="24" height="24" fill="white" transform="translate(0 24) rotate(-90)"/>
</clipPath>
</defs>
</svg>
